<?xml version="1.0" encoding="utf-8"?>
<!-- Generator: Adobe Illustrator 27.5.0, SVG Export Plug-In . SVG Version: 6.00 Build 0)  -->
<svg version="1.1" id="Layer_1" xmlns="http://www.w3.org/2000/svg" xmlns:xlink="http://www.w3.org/1999/xlink" x="0px" y="0px"
	 viewBox="0 0 322.156 400" style="enable-background:new 0 0 322.156 400;" xml:space="preserve">
<g>
	<g>
		<g>
			<path style="fill:#3D698A;" d="M171.364,332.389c84.028-0.42,82.79-68.165,63.703-89.73
				c-19.086-21.565-63.951-15.368-63.951-15.368s-60.977-6.445-86.012,21.813c-9.388,10.597-8.424,24.33-3.551,37.358
				c9.955,26.615,35.205,44.427,63.599,45.533C152.478,332.28,161.147,332.44,171.364,332.389z"/>
			<path style="fill:#3D698A;" d="M171.364,332.389c84.028-0.42,82.79-68.165,63.703-89.73
				c-19.086-21.565-63.951-15.368-63.951-15.368s-60.977-6.445-86.012,21.813c-9.388,10.597-8.424,24.33-3.551,37.358
				c9.955,26.615,35.205,44.427,63.599,45.533C152.478,332.28,161.147,332.44,171.364,332.389z"/>
		</g>
		<g>
			<g>
				<path style="fill:#71ABC5;" d="M314.102,390c-1.712-12.834-13.415-78.747-73.594-83.138c-51.787-3.779-72.677-1.689-79.43-0.566
					c-6.753-1.123-27.643-3.212-79.43,0.566C21.469,311.253,9.766,377.166,8.054,390H314.102z"/>
			</g>
			<g style="opacity:0.5;">
				<path style="fill:#71ABC5;" d="M115.807,390c0.632-10.385,5.54-20.677,12.641-28.009c2.292-2.367,4.878-4.472,7.723-6.14
					c3.687-2.163,7.762-3.761,11.837-5.021c8.348-2.581,17.09-3.601,25.783-4.128c15.829-0.96,31.854,0.266,47.56-2.335
					c7.601-1.259,15.137-3.469,21.785-7.443c6.496-3.882,11.706-9.631,15.628-16.056c1.717-2.813,3.202-5.747,4.485-8.77
					c-6.683-2.76-14.225-4.615-22.74-5.237c-51.787-3.779-72.677-1.689-79.43-0.566c-6.753-1.123-27.643-3.212-79.43,0.566
					C21.469,311.253,9.766,377.166,8.054,390H115.807z"/>
			</g>
			<g style="opacity:0.6;">
				<path style="fill:#71ABC5;" d="M43.986,330.445c3.694,4.336,6.887,9.194,9.554,14.224c0.655,1.372,1.424,2.837,2.069,4.206
					c0.591,1.381,1.255,2.928,1.869,4.307c0.335,0.929,1.29,3.456,1.651,4.405c0.707,1.943,1.291,4.025,1.99,5.973
					c-1.728,6.274-3.168,17.549-2.424,26.441h1.681c-0.011-0.151-0.025-0.301-0.036-0.453c-0.202-2.782-0.249-5.86-0.205-8.657
					c0.104-5.798,0.581-11.587,1.381-17.334c-0.163-1.063-0.439-2.129-0.656-3.193c-0.461-2.395-1.408-5.318-2.139-7.649
					c-0.546-1.438-1.164-3.034-1.73-4.453c-0.609-1.421-1.364-2.921-2.028-4.331c-3.871-7.357-8.955-14.345-15.523-19.512
					c-0.215,0.194-0.429,0.389-0.641,0.585C40.64,326.709,42.36,328.547,43.986,330.445z"/>
				<path style="fill:#71ABC5;" d="M261.886,389.547c-0.011,0.152-0.024,0.302-0.036,0.453h1.681
					c0.745-8.892-0.696-20.166-2.423-26.441c0.699-1.948,1.283-4.03,1.99-5.973c0.361-0.949,1.316-3.476,1.651-4.405
					c0.615-1.378,1.279-2.926,1.869-4.307c0.645-1.369,1.414-2.834,2.069-4.206c2.667-5.03,5.86-9.888,9.554-14.224
					c1.626-1.898,3.346-3.736,5.186-5.442c-0.212-0.196-0.426-0.391-0.641-0.585c-6.568,5.167-11.652,12.155-15.523,19.512
					c-0.663,1.41-1.419,2.91-2.028,4.331c-0.567,1.419-1.185,3.015-1.731,4.453c-0.73,2.332-1.677,5.254-2.139,7.649
					c-0.217,1.063-0.493,2.13-0.656,3.193c0.8,5.747,1.277,11.536,1.381,17.334C262.135,383.687,262.088,386.765,261.886,389.547z"
					/>
			</g>
		</g>
		<g>
			<path style="fill:#F6B687;" d="M198.624,243.092c0,0-5.519,25.676-2.16,48.472c0,0,9.118,7.679,20.396,11.518
				c0,0-7.919,27.835-52.071,27.835h-0.127c-44.152,0-52.071-27.835-52.071-27.835c11.278-3.839,20.396-11.518,20.396-11.518
				c3.359-22.796-2.16-48.472-2.16-48.472H198.624z"/>
			<path style="opacity:0.6;fill:#F6B687;" d="M130.828,243.092c0,0,1.614,7.512,2.565,18.014c9.099,5.03,19.791,8.871,31.332,8.999
				h0.001c11.541-0.128,22.233-3.97,31.332-8.999c0.951-10.503,2.565-18.014,2.565-18.014H130.828z"/>
		</g>
		<g>
			<g>
				<g>
					<path style="fill:#3D698A;" d="M168.764,335.908c-0.265,0.037-2.557-3.559-2.781-3.841c-2.738-3.459-5.812-6.656-9.095-9.6
						c-20.554-18.428-52.369-20.795-67.006-46.388c-2.688-4.701-4.3-10.534-3.187-16.042c1.162-5.75,5.651-10.902,9.716-14.921
						c4.585-4.533,10.519-8.906,16.828-10.709l-6.558-5.716c0,0-44.369,14.204-33.406,43.204c-0.029-0.077-4.091,2.361-4.311,2.512
						c-3.317,2.278-6.297,5.106-8.586,8.425c-11.867,17.212,0.09,39.137,16.513,47.778c17.704,9.316,39.665,9.506,59.129,8.551
						C146.98,338.625,157.903,337.442,168.764,335.908z"/>
					<path style="opacity:0.4;fill:#3D698A;" d="M84.874,261.837c-1.113,5.508,0.498,11.341,3.187,16.042
						c14.637,25.593,46.452,27.959,67.006,46.388c3.283,2.943,6.357,6.141,9.095,9.6c0.128,0.162,0.937,1.413,1.653,2.445
						c0.983-0.133,1.967-0.265,2.949-0.404c-0.265,0.037-2.557-3.559-2.781-3.841c-2.738-3.459-5.812-6.656-9.095-9.6
						c-20.554-18.428-52.369-20.795-67.006-46.388c-2.688-4.701-4.3-10.534-3.187-16.042c1.071-5.299,4.967-10.088,8.753-13.952
						c-0.291,0.276-0.577,0.553-0.859,0.831C90.525,250.935,86.036,256.087,84.874,261.837z"/>
				</g>
				<g>
					<circle style="fill:#C7EAFB;" cx="141.603" cy="332.118" r="6.524"/>
					<circle style="fill:#BCBEC0;" cx="141.603" cy="333.309" r="4.794"/>
					<path style="fill:#C7EAFB;" d="M138.186,390c0.919-7.504,3.17-25.552,4.346-31.922c1.501-8.128,4.001-26.758-0.929-25.96
						c-4.93,0.798-4.448,16.832-5.698,31.336c-0.914,10.603-2.829,21.465-3.794,26.546H138.186z"/>
				</g>
			</g>
			<g>
				<g>
					<path style="fill:#3D698A;" d="M158.815,335.908c0.265,0.037,2.557-3.559,2.781-3.841c2.738-3.459,5.812-6.656,9.095-9.6
						c20.554-18.428,52.369-20.795,67.006-46.388c2.688-4.701,4.3-10.534,3.187-16.042c-1.162-5.75-5.651-10.902-9.716-14.921
						c-4.585-4.533-10.519-8.906-16.828-10.709l6.558-5.716c0,0,44.369,14.204,33.406,43.204c0.029-0.077,4.091,2.361,4.311,2.512
						c3.317,2.278,6.297,5.106,8.586,8.425c11.867,17.212-0.09,39.137-16.513,47.778c-17.704,9.316-39.665,9.506-59.129,8.551
						C180.598,338.625,169.676,337.442,158.815,335.908z"/>
					<path style="opacity:0.4;fill:#3D698A;" d="M242.704,261.837c1.113,5.508-0.498,11.341-3.187,16.042
						c-14.637,25.593-46.452,27.959-67.006,46.388c-3.283,2.943-6.357,6.141-9.095,9.6c-0.128,0.162-0.937,1.413-1.653,2.445
						c-0.983-0.133-1.967-0.265-2.949-0.404c0.265,0.037,2.557-3.559,2.781-3.841c2.738-3.459,5.812-6.656,9.095-9.6
						c20.554-18.428,52.369-20.795,67.006-46.388c2.688-4.701,4.3-10.534,3.187-16.042c-1.071-5.299-4.967-10.088-8.753-13.952
						c0.291,0.276,0.577,0.553,0.858,0.831C237.054,250.935,241.542,256.087,242.704,261.837z"/>
				</g>
				<g>
					<circle style="fill:#C7EAFB;" cx="185.976" cy="332.118" r="6.524"/>
					<circle style="fill:#BCBEC0;" cx="185.976" cy="333.309" r="4.794"/>
					<path style="fill:#C7EAFB;" d="M189.393,390h6.075c-0.965-5.081-2.88-15.943-3.794-26.546
						c-1.25-14.504-0.768-30.538-5.698-31.336c-4.93-0.798-2.429,17.832-0.929,25.96C186.223,364.448,188.475,382.496,189.393,390z"
						/>
				</g>
			</g>
		</g>
	</g>
	<g>
		<path style="fill:#F6B687;" d="M233.965,105.679c0,0,5.875,75.662-11.352,119.718c-0.474,1.212-1.152,2.327-2.012,3.294
			c-5.571,6.254-28.587,30.017-56.959,30.331h-0.001c-28.371-0.314-51.388-24.077-56.959-30.331
			c-0.861-0.967-1.539-2.082-2.013-3.294c-17.227-44.057-11.352-119.718-11.352-119.718s1.155-48.1,73.716-48.1
			S233.965,105.679,233.965,105.679z"/>
		<g>
			<g>
				<path style="fill:#F6B687;" d="M96.001,175.444c-1.955-5.339-4.223-10.59-8.033-14.894c-6.989-7.896-19.866-4.182-23.541,5.144
					c-2.903,7.366,0.226,15.853,3.889,22.371c3.371,5.999,7.801,12.115,14.447,14.835c5.538,2.267,15.66,3.042,17.864-4.23
					c1.823-6.016-1.345-13.943-3.327-19.579C96.874,177.876,96.445,176.658,96.001,175.444z"/>
				<path style="fill:#F6B687;" d="M87.346,176.68c0,0-4.86-2.573-5.146,3.335c-0.286,5.908,4.955,9.243,4.955,9.243
					s-14.484,2.477-15.913-12.673C69.813,161.434,84.487,162.768,87.346,176.68z"/>
			</g>
			<g>
				<path style="fill:#F6B687;" d="M231.281,175.444c1.955-5.339,4.223-10.59,8.033-14.894c6.989-7.896,19.866-4.182,23.541,5.144
					c2.903,7.366-0.226,15.853-3.889,22.371c-3.371,5.999-7.801,12.115-14.447,14.835c-5.538,2.267-15.66,3.042-17.864-4.23
					c-1.823-6.016,1.345-13.943,3.327-19.579C230.408,177.876,230.836,176.658,231.281,175.444z"/>
				<path style="fill:#F6B687;" d="M239.936,176.68c0,0,4.86-2.573,5.146,3.335c0.286,5.908-4.955,9.243-4.955,9.243
					s14.484,2.477,15.913-12.673C257.469,161.434,242.795,162.768,239.936,176.68z"/>
			</g>
		</g>
		<g>
			<path style="fill:#FED294;" d="M214.534,88.567c11.934-7.355,16.097-21.925-4.163-21.925S197.605,91.62,197.605,91.62
				c5.551-1.804,9.648-1.396,9.648-1.396s5.894-1.935,6.31-1.796L214.534,88.567z"/>
			<path style="fill:#FED294;" d="M214.534,88.567c11.934-7.355,16.097-21.925-4.163-21.925S197.605,91.62,197.605,91.62
				c5.551-1.804,9.648-1.396,9.648-1.396s5.894-1.935,6.31-1.796L214.534,88.567z"/>
		</g>
		<g>
			<path style="fill:#FED294;" d="M95.946,182.843c0,0,0.775-20.621,1.085-53.49c0.31-32.869-25.892-17.675-25.892-17.675
				S83.077,175.246,95.946,182.843z"/>
			<path style="fill:#FED294;" d="M95.946,182.843c0,0,0.775-20.621,1.085-53.49c0.31-32.869-25.892-17.675-25.892-17.675
				S83.077,175.246,95.946,182.843z"/>
		</g>
		<g>
			<path style="fill:#FED294;" d="M230.22,182.843c0,0-0.775-20.621-1.085-53.49c-0.31-32.869,25.892-17.675,25.892-17.675
				S243.089,175.246,230.22,182.843z"/>
			<path style="fill:#FED294;" d="M230.22,182.843c0,0-0.775-20.621-1.085-53.49c-0.31-32.869,25.892-17.675,25.892-17.675
				S243.089,175.246,230.22,182.843z"/>
		</g>
		<g>
			<path style="fill:#FED294;" d="M207.253,90.224c0,0,22.363-12.497,8.551-16.115c-5.998-1.571-9.291,6.265-11.182,10.521
				c-3.422,7.701-6.339,15.467-10.459,22.831c-3.162,5.652-8.707,9.272-14.875,10.928c-10.864,2.917-23.161,2.167-34.183,0.646
				c-6.953-0.959-13.778-2.538-20.653-3.919c-4.14-0.831-9.117-2.116-13.295-0.815c-1.511,0.47-2.809,1.353-3.702,2.672
				c-6.906,10.195,4.097,18.634,10.345,18.963c0,0-18.761,2.164-21.758-11.56c0,0-0.367,5.549,3.445,7.508
				c0,0-25.011,11.159-38.897-17.168c-12.769-26.049,6.129-38.136,6.129-38.136s-21.839-3.223-13.362-26.127
				c0,0-2.677,12.791,8.18,15.914C72.393,69.491,76.26,61.46,76.26,61.46s-6.246,0-7.139-6.841c0,0,5.503,6.395,13.237-1.933
				s2.826-16.955,17.699-27.217c14.873-10.262,36.141-5.503,36.141-5.503s-2.826-4.313-0.595-9.965c0,0,0.298,13.832,18.591,14.575
				c18.293,0.744,20.971-8.478,44.321-3.272c23.35,5.205,20.673,16.955,36.141,16.955s12.047-15.616,12.047-15.616
				s14.724,11.155,1.487,29.745c0,0,17.55,2.082,25.73-13.683c0,0,3.867,21.417-15.319,25.432c0,0,19.929,4.908,16.657,33.612
				s-45.659,33.166-57.26,31.381c0,0,11.258-7.611,9.221-19.929C224.095,90.313,207.253,90.224,207.253,90.224z"/>
			<path style="opacity:0.5;fill:#FED294;" d="M60.589,114.717c13.886,28.327,38.897,17.168,38.897,17.168
				c-3.812-1.959-3.445-7.508-3.445-7.508c2.997,13.724,21.758,11.56,21.758,11.56c-6.249-0.329-17.252-8.768-10.345-18.964
				c0.893-1.319,2.191-2.201,3.702-2.671c4.178-1.3,9.155-0.016,13.295,0.815c6.875,1.381,13.7,2.96,20.653,3.919
				c11.021,1.52,23.319,2.27,34.183-0.646c6.169-1.656,11.713-5.276,14.875-10.928c4.12-7.365,7.037-15.13,10.459-22.831
				c1.595-3.588,4.186-9.721,8.554-10.615c-11.733,1.212-14.434,25.276-36.493,35.261c-23.616,10.69-56.431-18.893-69.855-19.887
				c-13.424-0.994-17.153,16.904-27.097,14.17c-9.944-2.734,8.452-21.13,8.452-21.13c-25.356,2.983-23.368,26.351-23.368,26.351
				c-5.469-24.859,17.65-36.295,17.65-36.295c-12.181,0.746-15.748,4.096-15.748,4.096S47.82,88.669,60.589,114.717z"/>
			<path style="opacity:0.5;fill:#FED294;" d="M227.218,109.201c2.037,12.319-9.221,19.929-9.221,19.929
				c10.336,1.59,45.108-1.779,54.884-22.832c-12.816,18.588-43.325,19.96-43.389,19.963c1.085-0.049,2.837-1.996,3.509-2.682
				c9.165-9.351,2.156-25.048-7.522-30.932c-3.742-2.275-8.125-3.273-12.482-3.188c-1.911,0.037-3.891,0.775-5.744,0.765
				C207.254,90.224,224.095,90.313,227.218,109.201z"/>
		</g>
		<g>
			<g style="opacity:0.55;">
				<path style="opacity:0.74;fill:#E07B70;" d="M177.421,193.999c0,5.774-6.169,10.454-13.78,10.454
					c-7.61,0-13.78-4.681-13.78-10.454c0-5.774,6.169-22.164,13.78-22.164C171.251,171.835,177.421,188.226,177.421,193.999z"/>
				<g style="opacity:0.5;">
					<path style="fill:#E1A566;" d="M163.641,200.959c-6.913,0-12.62-3.866-13.611-8.9c-0.11,0.729-0.169,1.385-0.169,1.941
						c0,5.774,6.169,10.454,13.78,10.454c7.61,0,13.78-4.681,13.78-10.454c0-0.556-0.058-1.212-0.169-1.941
						C176.26,197.093,170.553,200.959,163.641,200.959z"/>
				</g>
				<path style="fill:#754C29;" d="M150.949,197.906c-0.022,0.019-0.036,0.038-0.056,0.057c1.527,2.824,4.635,5.026,8.49,5.976
					C158.245,202.054,153.902,195.37,150.949,197.906z"/>
				<path style="fill:#754C29;" d="M176.344,197.906c0.022,0.019,0.036,0.038,0.056,0.057c-1.527,2.824-4.635,5.026-8.49,5.976
					C169.048,202.054,173.391,195.37,176.344,197.906z"/>
			</g>
			<path style="fill:#F6B687;" d="M197.438,216.363c-5.451,3.789-11.999,5.462-18.431,6.65c-0.747,0.111-2.518,0.364-3.232,0.469
				c-0.663,0.068-2.553,0.26-3.247,0.329c-2.499,0.228-6.138,0.316-8.684,0.332v-0.676h0.097v0.676l-4.345-0.059
				c-2.468-0.112-5.126-0.305-7.588-0.584c-0.721-0.102-2.499-0.36-3.233-0.464c-5.001-0.88-10.023-2.154-14.613-4.38
				c-1.33-0.643-2.598-1.325-3.849-2.251l0.775-0.947c4.63,3.3,10.23,5.015,15.737,6.246c0,0,2.107,0.43,2.107,0.43
				c0.735,0.119,2.485,0.396,3.188,0.51c2.439,0.314,5.061,0.546,7.509,0.697l4.313,0.126v0.676h-0.097v-0.676
				c3.362-0.059,7.442-0.243,10.754-0.681c1.213-0.114,3.047-0.445,4.26-0.627c4.902-0.936,9.808-2.249,14.276-4.494
				c1.262-0.627,2.532-1.35,3.6-2.163L197.438,216.363L197.438,216.363z"/>
			<g>
				<g>
					<path style="fill:#FED294;" d="M104.42,145.499c0.323-1.516,3.46-3.051,4.614-3.619c5.38-2.646,11.594-2.659,17.448-2.374
						c7.51,0.365,20.711,2.594,24.159-6.519c0.549-1.453,0.776-3.014,0.825-4.56c-0.019,0.603-5.615,1.035-6.016,1.062
						c-4.598,0.31-9.033-0.874-13.591-1.045c-7.766-0.291-15.446,2.65-21.266,7.749C107.805,138.634,105.211,141.789,104.42,145.499
						z"/>
					<g>
						<g>
							<path style="fill:#FFFFFF;" d="M109.013,162.386l1.684,7.922c0,0,5.304,7.755,18.473,9.278
								c13.169,1.523,20.498-5.112,20.498-5.112s-0.341-21.853-21.394-22.122C107.221,152.084,109.013,162.386,109.013,162.386z"/>
							<g>
								<circle style="fill:#44C8F5;" cx="131.09" cy="163.684" r="12.032"/>
								
									<ellipse transform="matrix(0.9732 -0.2298 0.2298 0.9732 -34.1 34.4969)" style="fill:#241F20;" cx="131.09" cy="163.684" rx="8.709" ry="8.709"/>
								<path style="fill:#FFFFFF;" d="M133.695,161.23c0,1.999,1.62,3.619,3.619,3.619s3.619-1.62,3.619-3.619
									c0-1.999-1.62-3.619-3.619-3.619S133.695,159.231,133.695,161.23z"/>
							</g>
							<path style="fill:#754C29;" d="M149.667,174.475c0,0,0.403-20.56-15.051-23.786c-15.454-3.225-28.354,7.257-28.354,7.257
								s-0.806,7.66,4.435,12.363c0,0-0.538-10.347,0.537-11.557c1.075-1.209,12.855-8.434,25.667-3.494
								C148.055,159.558,149.667,174.475,149.667,174.475z"/>
						</g>
					</g>
				</g>
				<g>
					<path style="fill:#FED294;" d="M223.332,145.499c-0.323-1.516-3.46-3.051-4.614-3.619c-5.38-2.646-11.594-2.659-17.448-2.374
						c-7.51,0.365-20.711,2.594-24.159-6.519c-0.55-1.453-0.776-3.014-0.825-4.56c0.019,0.603,5.615,1.035,6.016,1.062
						c4.598,0.31,9.033-0.874,13.591-1.045c7.766-0.291,15.446,2.65,21.266,7.749C219.947,138.634,222.54,141.789,223.332,145.499z"
						/>
					<g>
						<g>
							<path style="fill:#FFFFFF;" d="M218.739,162.386l-1.684,7.922c0,0-5.304,7.755-18.473,9.278
								c-13.169,1.523-20.498-5.112-20.498-5.112s0.341-21.853,21.394-22.122C220.531,152.084,218.739,162.386,218.739,162.386z"/>
							<g>
								<circle style="fill:#44C8F5;" cx="196.661" cy="163.684" r="12.032"/>
								
									<ellipse transform="matrix(0.7071 -0.7071 0.7071 0.7071 -58.1414 187.0027)" style="fill:#241F20;" cx="196.661" cy="163.684" rx="8.709" ry="8.709"/>
								<path style="fill:#FFFFFF;" d="M194.057,161.23c0,1.999-1.62,3.619-3.619,3.619c-1.999,0-3.619-1.62-3.619-3.619
									c0-1.999,1.62-3.619,3.619-3.619C192.437,157.61,194.057,159.231,194.057,161.23z"/>
							</g>
							<path style="fill:#754C29;" d="M178.084,174.475c0,0-0.403-20.56,15.051-23.786c15.454-3.225,28.355,7.257,28.355,7.257
								s0.806,7.66-4.435,12.363c0,0,0.537-10.347-0.538-11.557c-1.075-1.209-12.855-8.434-25.667-3.494
								C179.697,159.558,178.084,174.475,178.084,174.475z"/>
						</g>
					</g>
				</g>
			</g>
		</g>
	</g>
</g>
</svg>
